<svg width="2017" height="274" viewBox="0 0 2017 274" fill="none" xmlns="http://www.w3.org/2000/svg">
<path d="M69.2 270H0.800001V3.99998H211.7V57.2H69.2V119.9H181.3V173.1H69.2V270ZM378.9 270H242.1V216.8H276.3V57.2H242.1V3.99998H378.9V57.2H344.7V216.8H378.9V270ZM428.27 3.99998H587.87C614.47 3.99998 633.724 10.08 645.63 22.24C657.79 34.1467 663.87 53.4 663.87 80V114.2C663.87 135.227 660.324 151.567 653.23 163.22C646.39 174.873 635.37 182.6 620.17 186.4L667.67 270H593.57L549.87 190.2H496.67V270H428.27V3.99998ZM595.47 80C595.47 64.8 587.87 57.2 572.67 57.2H496.67V137H572.67C587.87 137 595.47 129.4 595.47 114.2V80ZM927.866 270H716.966V3.99998H927.866V57.2H785.366V108.5H897.466V161.7H785.366V216.8H927.866V270ZM1178.58 266.2C1122.08 271.267 1075.22 273.8 1037.98 273.8C1013.15 273.8 994.911 267.973 983.257 256.32C971.604 244.667 965.777 226.427 965.777 201.6V80C965.777 53.4 971.731 34.1467 983.637 22.24C995.797 10.08 1015.18 3.99998 1041.78 3.99998H1178.58V57.2H1056.98C1041.78 57.2 1034.18 64.8 1034.18 80V201.6C1034.18 207.427 1035.82 212.113 1039.12 215.66C1042.66 218.953 1047.1 220.6 1052.42 220.6C1057.74 220.6 1063.56 220.6 1069.9 220.6C1076.23 220.347 1082.82 220.093 1089.66 219.84C1096.5 219.587 1103.34 219.333 1110.18 219.08C1117.27 218.827 1126.26 218.32 1137.16 217.56C1148.3 216.8 1162.11 215.913 1178.58 214.9V266.2ZM1395.22 76.2C1395.22 61 1387.62 53.4 1372.42 53.4H1307.82C1292.62 53.4 1285.02 61 1285.02 76.2V197.8C1285.02 213 1292.62 220.6 1307.82 220.6H1372.42C1387.62 220.6 1395.22 213 1395.22 197.8V76.2ZM1463.62 197.8C1463.62 224.4 1457.54 243.78 1445.38 255.94C1433.48 267.847 1414.22 273.8 1387.62 273.8H1292.62C1266.02 273.8 1246.64 267.847 1234.48 255.94C1222.58 243.78 1216.62 224.4 1216.62 197.8V76.2C1216.62 49.6 1222.58 30.3467 1234.48 18.44C1246.64 6.27998 1266.02 0.199986 1292.62 0.199986H1387.62C1414.22 0.199986 1433.48 6.27998 1445.38 18.44C1457.54 30.3467 1463.62 49.6 1463.62 76.2V197.8ZM1665.2 3.99998C1693.83 3.99998 1715.49 11.4733 1730.18 26.42C1745.13 41.1133 1752.6 62.7733 1752.6 91.4V182.6C1752.6 211.227 1745.13 233.013 1730.18 247.96C1715.49 262.653 1693.83 270 1665.2 270H1517V3.99998H1665.2ZM1684.2 91.4C1684.2 68.6 1672.8 57.2 1650 57.2H1585.4V216.8H1650C1672.8 216.8 1684.2 205.4 1684.2 182.6V91.4ZM2016.6 270H1805.7V3.99998H2016.6V57.2H1874.1V108.5H1986.2V161.7H1874.1V216.8H2016.6V270Z" fill="#1F1F1F"/>
</svg>
